<svg xmlns="http://www.w3.org/2000/svg" enable-background="new 0 0 66 66" viewBox="0 0 66 66" id="24Support">
  <path d="M63.73,41.35c0-3.25-2.46-5.98-5.61-6.41v-1.82c0-1.36-1.02-2.48-2.33-2.66v-3.12c0-4.18-1.16-8.26-3.34-11.83c0.38-1.18,0.19-2.52-0.65-3.54C47.16,6.3,40.31,3.06,33,3.06c-7.31,0-14.16,3.25-18.79,8.91c-0.84,1.03-1.04,2.37-0.65,3.54c-2.18,3.57-3.34,7.65-3.34,11.83v3.12c-1.31,0.18-2.33,1.3-2.33,2.66v1.82c-3.15,0.43-5.61,3.16-5.61,6.41c0,3.25,2.46,5.98,5.61,6.41v1.82c0,1.48,1.21,2.69,2.69,2.69h3.43c2.25,0,4.08-1.83,4.08-4.08V34.5c0-2.01-1.46-3.67-3.38-4.01v-3.15c0-3.25,0.89-6.45,2.57-9.27c1.03-0.05,2.03-0.5,2.73-1.35c3.21-3.92,7.94-6.16,12.99-6.16s9.78,2.25,12.99,6.16c0.68,0.83,1.67,1.3,2.73,1.35c1.67,2.82,2.56,6.02,2.56,9.27v3.15c-1.91,0.34-3.37,2-3.37,4.01v13.69c0,2.25,1.83,4.08,4.08,4.08h0.04c-2.2,4.67-7.24,7.13-14.64,7.05c0.06-1.02-0.39-2.13-1.32-3.19c-0.93-1.06-2.23-1.92-3.39-2.24c-1.18-0.33-2.41-0.18-3.48,0.42s-1.84,1.58-2.17,2.76c-0.33,1.18-0.18,2.42,0.42,3.49s1.58,1.84,2.76,2.17c0.49,0.14,1.06,0.21,1.65,0.21c0.8,0,1.64-0.12,2.41-0.37c1.2-0.38,2.1-0.99,2.62-1.76c0.02,0,0.04,0.01,0.07,0.02c0.21,0,0.42,0.01,0.63,0.01c10.3,0,14.43-4.53,16.07-8.56h1.76c1.48,0,2.69-1.21,2.69-2.69v-1.82C61.27,47.33,63.73,44.6,63.73,41.35z M35.85,59.55c-0.19,0.67-0.93,1.25-2.03,1.6c-1.06,0.33-2.32,0.39-3.2,0.15c-0.79-0.22-1.45-0.74-1.85-1.46c-0.4-0.72-0.51-1.55-0.28-2.35c0.22-0.79,0.74-1.46,1.46-1.86c0.47-0.26,0.99-0.4,1.51-0.4c0.28,0,0.56,0.04,0.83,0.11c0.88,0.25,1.93,0.95,2.66,1.79C35.71,58,36.04,58.88,35.85,59.55z M3.77,41.35c0-2.43,1.79-4.48,4.11-4.9v9.79C5.56,45.83,3.77,43.78,3.77,41.35z M16.59,34.5v13.69c0,1.42-1.16,2.58-2.58,2.58h-3.43c-0.66,0-1.19-0.54-1.19-1.19v-2.51V35.63v-2.51c0-0.66,0.54-1.19,1.19-1.19h0.39h3h0.04C15.43,31.92,16.59,33.08,16.59,34.5z M13.21,27.34v3.08h-1.5v-3.08c0-3.65,0.95-7.22,2.73-10.39c0.09,0.1,0.18,0.2,0.29,0.29c0.3,0.25,0.63,0.42,0.97,0.56C14.08,20.73,13.21,24.01,13.21,27.34z M33,9.06c-5.5,0-10.66,2.45-14.15,6.71c-0.79,0.96-2.21,1.1-3.17,0.31s-1.1-2.21-0.31-3.17C19.72,7.6,26.15,4.56,33,4.56s13.28,3.05,17.63,8.36c0.79,0.96,0.64,2.38-0.31,3.17c-0.93,0.76-2.41,0.61-3.17-0.32C43.66,11.5,38.5,9.06,33,9.06z M50.3,17.81c0.35-0.14,0.68-0.32,0.97-0.56c0.11-0.09,0.19-0.19,0.29-0.29c1.78,3.17,2.73,6.74,2.73,10.39v3.08h-1.5v-3.08C52.78,24.01,51.92,20.74,50.3,17.81z M56.62,49.58c0,0.66-0.54,1.19-1.19,1.19h-3.43c-1.42,0-2.58-1.16-2.58-2.58V34.5c0-1.42,1.16-2.58,2.58-2.58h0.04h3h0.39c0.66,0,1.19,0.54,1.19,1.19v2.51v11.44V49.58z M58.12,46.24v-9.79c2.33,0.41,4.11,2.47,4.11,4.9C62.23,43.78,60.44,45.83,58.12,46.24z" fill="#005bea" class="color000000 svgShape"></path>
  <path d="M44.85,36.33c0-6.53-5.32-11.85-11.85-11.85c-6.54,0-11.85,5.32-11.85,11.85c0,6.54,5.32,11.85,11.85,11.85C39.53,48.19,44.85,42.87,44.85,36.33z M22.65,36.33c0-5.71,4.64-10.35,10.35-10.35c5.71,0,10.35,4.64,10.35,10.35c0,5.71-4.64,10.35-10.35,10.35C27.29,46.69,22.65,42.04,22.65,36.33z" fill="#005bea" class="color000000 svgShape"></path>
  <path d="M31.98 39.84c-.02-.04-.05-.07-.09-.09s-.07-.03-.1-.03h-3.76l1.37-1.43c.49-.51.89-.96 1.19-1.35.3-.39.53-.74.68-1.06s.26-.61.31-.89c.05-.27.07-.55.07-.82 0-.31-.05-.6-.15-.87-.1-.27-.26-.51-.46-.71-.21-.2-.47-.37-.78-.48-.31-.12-.68-.18-1.1-.18-.26 0-.51.03-.75.08s-.46.12-.65.2-.36.16-.49.24c-.13.08-.22.14-.28.19s-.09.09-.11.12c-.02.03-.03.06-.04.1-.01.04-.02.08-.02.13s-.01.11-.01.17c0 .09 0 .17.01.24.01.07.02.12.04.16.02.04.04.07.06.09.03.02.05.03.09.03.06 0 .14-.04.25-.11.11-.08.25-.16.42-.25.17-.09.36-.17.59-.25.22-.08.47-.11.75-.11.24 0 .45.04.63.11.18.08.34.18.46.31.12.13.21.28.28.45.06.17.1.35.1.54s-.02.4-.06.61c-.04.22-.13.46-.26.73-.13.27-.32.56-.56.89-.24.32-.56.69-.96 1.1l-1.73 1.78c-.06.06-.1.11-.13.16-.03.05-.06.1-.09.15-.02.05-.04.11-.04.18-.01.07-.01.14-.01.23 0 .1.01.18.02.25.02.07.04.12.07.15.03.04.07.06.12.08.05.02.1.02.16.02h4.77c.04 0 .08-.01.11-.03s.06-.05.08-.09.04-.09.05-.16.02-.13.02-.21c0-.08-.01-.15-.02-.21C32.03 39.93 32.01 39.88 31.98 39.84zM33.21 38.62c.03.04.06.06.1.07.04.01.08.02.13.02h3.54v1.82c0 .04.01.07.02.09.02.02.05.05.09.06.04.02.1.03.18.04.07.01.17.01.27.01.11 0 .21 0 .28-.01.07-.01.13-.02.18-.04.05-.02.08-.04.1-.06.02-.02.03-.05.03-.09v-1.82h.97c.08 0 .14-.04.19-.13.04-.08.07-.2.07-.35 0-.16-.02-.28-.07-.36-.05-.08-.11-.12-.18-.12h-.97v-5.52c0-.04-.02-.07-.05-.1-.04-.03-.09-.05-.16-.07-.07-.02-.16-.03-.27-.04-.11-.01-.24-.02-.39-.02-.14 0-.25 0-.35.01-.1.01-.18.02-.25.04s-.12.04-.17.07c-.04.03-.08.06-.1.09l-3.08 5.25c-.03.06-.06.11-.08.16-.02.05-.04.1-.05.16-.01.06-.02.12-.03.18s-.01.14-.01.23c0 .11.01.19.02.26S33.18 38.59 33.21 38.62zM36.96 33.03h.01v4.74h-2.79L36.96 33.03z" fill="#005bea" class="color000000 svgShape"></path>
</svg>
