<svg xmlns="http://www.w3.org/2000/svg" viewBox="0 0 64 64" id="business-direction">
  <path fill="#36c" d="M56.57 42.69c-3 0-5.6 1-6.44 2.31h-3.72c-.41-1.08-1.55-2.32-4.41-3.35a24.41 24.41 0 0 0-4.38-1.05l-.24 1.86a22.54 22.54 0 0 1 4 1c2.48.88 3.36 1.87 3.36 2.51s-.88 1.64-3.36 2.51A29.16 29.16 0 0 1 32 49.8a29.16 29.16 0 0 1-9.33-1.35c-2.48-.88-3.36-1.87-3.36-2.51s.88-1.64 3.36-2.51a22.48 22.48 0 0 1 4-1l-.24-1.86A24.45 24.45 0 0 0 22 41.65c-2.91 1-4.07 2.27-4.45 3.34h-3.68c-.83-1.34-3.4-2.31-6.44-2.31-3.71 0-6.72 1.45-6.72 3.25s3 3.25 6.72 3.25c3 0 5.6-1 6.44-2.31h3.73c.39 1.07 1.54 2.32 4.45 3.34a30.05 30.05 0 0 0 9 1.45v3.82c-3.25.23-5.74 1.58-5.74 3.21 0 1.79 3 3.25 6.72 3.25s6.72-1.45 6.72-3.25-2.54-3-5.83-3.22v-3.8A30.14 30.14 0 0 0 42 50.22c2.91-1 4.07-2.27 4.45-3.34h3.73c.83 1.34 3.4 2.31 6.44 2.31 3.71 0 6.72-1.45 6.72-3.25s-3.06-3.25-6.77-3.25Z"></path>
  <path fill="#3b4551" d="M35.6 6.15v.33a4.89 4.89 0 0 1-1.05 2.84 2.83 2.83 0 0 1-5.09 0 4.89 4.89 0 0 1-1.06-2.84v-.33A5 5 0 0 1 28.67 4 3.53 3.53 0 0 1 32 2a3.53 3.53 0 0 1 3.33 2 5 5 0 0 1 .27 2.15zm-6.7 39.98h6.2a.39.39 0 0 0 .39-.38L37.4 30a.19.19 0 0 1 .14-.17c.38-.17 1.26-.54 1.26-1l.77-6.93a58.86 58.86 0 0 0-1.68-8.27 1.89 1.89 0 0 0-1.31-1.38l-1-.25a.52.52 0 0 0-.59.29l-1.43 3.07.19 1.29a35.16 35.16 0 0 1-1 3.44.76.76 0 0 1-1.45 0 34.91 34.91 0 0 1-1-3.44v-.06l.19-1.25L29 12.32a.54.54 0 0 0-.6-.29l-1 .24a1.91 1.91 0 0 0-1.31 1.39c-.89 3.67-1.8 7.83-1.68 8.27l.76 6.92c0 .41.89.79 1.27 1a.19.19 0 0 1 .13.17l1.92 15.74a.39.39 0 0 0 .41.37z"></path>
  <path fill="#36c" d="m32.69 14 .4 2.68c0 .11-1 3.25-1 3.25a.12.12 0 0 1-.22 0s-.95-3.12-1-3.25l.4-2.68a.5.5 0 0 1-.24-.32l-.28-1.25a.5.5 0 0 1 .49-.61h1.44a.5.5 0 0 1 .49.61l-.28 1.25a.5.5 0 0 1-.2.32Z"></path>
</svg>
