<svg xmlns="http://www.w3.org/2000/svg" enable-background="new 0 0 48 48" viewBox="0 0 48 48" id="Ideas">
  <line x1="27.1" x2="27.1" y1="27.4" y2="15.8" fill="none" stroke="#005bea" stroke-linecap="round" stroke-linejoin="round" stroke-miterlimit="10" stroke-width="1.5" class="colorStroke000000 svgStroke"></line>
  <line x1="24" x2="24" y1="14.9" y2="14.8" fill="none" stroke="#005bea" stroke-linecap="round" stroke-linejoin="round" stroke-miterlimit="10" stroke-width="1.5" class="colorStroke000000 svgStroke"></line>
  <line x1="24" x2="24" y1="27.4" y2="15.8" fill="none" stroke="#005bea" stroke-linecap="round" stroke-linejoin="round" stroke-miterlimit="10" stroke-width="1.5" class="colorStroke000000 svgStroke"></line>
  <path fill="none" stroke="#005bea" stroke-linecap="round" stroke-linejoin="round" stroke-miterlimit="10" stroke-width="1.5" d="M29.8 15.1c-.5.8-2.7.7-2.7.7v-.9c0-.6.4-1.2.7-1.6.5-.5 1.4-.5 2 0C30.3 13.8 30.2 14.5 29.8 15.1zM24 14.9v.8c0 0-2.2-.1-2.7-.7-.5-.6-.5-1.4 0-1.9s1.4-.5 2 0C23.6 13.6 24 14.4 24 14.9z" class="colorStroke000000 svgStroke"></path>
  <line x1="27.1" x2="24" y1="15.8" y2="15.8" fill="none" stroke="#005bea" stroke-linecap="round" stroke-linejoin="round" stroke-miterlimit="10" stroke-width="1.5" class="colorStroke000000 svgStroke"></line>
  <path fill="none" stroke="#005bea" stroke-linecap="round" stroke-linejoin="round" stroke-miterlimit="10" stroke-width="1.5" d="M37.1 18.5c1.3 2.1 2 4.5 2 7.1 0 1.6-.3 3.1-1 4.6l-2 4.4c-1.7 3.5-2.4 7.3-2.4 11.1V47M13.8 19.1c-.9 1.7-1.5 3.6-1.7 5.7L12 26.6c0 .3-.2.7-.3.9l-2.5 3.6C9 31.4 8.9 31.7 8.9 32l0 0c0 .9.9 1.6 1.7 1.6H12c.5 0 .9.4.9.9V40c0 1 .9 1.8 1.9 1.8h3.1c1 0 2 .9 2 1.9V47M30.3 27.5l.3-1.8c.1-1.3.8-2.5 1.7-3.5 1.8-1.9 2.9-4.6 2.7-7.5C34.6 10 30.7 6.2 26 6c-5.5-.3-10 4.1-10 9.5 0 2.6 1 4.9 2.7 6.6.9 1 1.6 2.2 1.7 3.6l.3 1.8M27.5 33.9v.4c0 1.1-.9 2-2 2s-2-.9-2-2v-.4" class="colorStroke000000 svgStroke"></path>
  <path fill="none" stroke="#005bea" stroke-linecap="round" stroke-linejoin="round" stroke-miterlimit="10" stroke-width="1.5" d="
		M29.5,33.9h-8c-0.9,0-1.6-0.7-1.6-1.6l0,0c0-0.9,0.7-1.6,1.6-1.6h8c0.9,0,1.6,0.7,1.6,1.6l0,0C31.1,33.2,30.4,33.9,29.5,33.9z" class="colorStroke000000 svgStroke"></path>
  <path fill="none" stroke="#005bea" stroke-linecap="round" stroke-linejoin="round" stroke-miterlimit="10" stroke-width="1.5" d="
		M29.5,30.7h-8c-0.9,0-1.6-0.7-1.6-1.6l0,0c0-0.9,0.7-1.6,1.6-1.6h8c0.9,0,1.6,0.7,1.6,1.6l0,0C31.1,29.9,30.4,30.7,29.5,30.7z" class="colorStroke000000 svgStroke"></path>
  <line x1="25.5" x2="25.5" y1="1" y2="2.4" fill="none" stroke="#005bea" stroke-linecap="round" stroke-linejoin="round" stroke-miterlimit="10" stroke-width="1.5" class="colorStroke000000 svgStroke"></line>
  <line x1="39.1" x2="38.1" y1="7.6" y2="8.6" fill="none" stroke="#005bea" stroke-linecap="round" stroke-linejoin="round" stroke-miterlimit="10" stroke-width="1.5" class="colorStroke000000 svgStroke"></line>
  <line x1="13" x2="12" y1="8.6" y2="7.6" fill="none" stroke="#005bea" stroke-linecap="round" stroke-linejoin="round" stroke-miterlimit="10" stroke-width="1.5" class="colorStroke000000 svgStroke"></line>
</svg>
