<svg xmlns="http://www.w3.org/2000/svg" enable-background="new 0 0 512 512" viewBox="0 0 512 512" id="Trust">
  <linearGradient id="a" x1="116.937" x2="397.775" y1="419.635" y2="138.796" gradientUnits="userSpaceOnUse">
    <stop offset="0" stop-color="#005bea" class="stopColor0095da svgShape"></stop>
    <stop offset=".5" stop-color="#005dee" class="stopColor00aeee svgShape"></stop>
    <stop offset="1" stop-color="#2b79f3" class="stopColor2bc4f3 svgShape"></stop>
  </linearGradient>
  <path fill="url(#a)" d="M505.922,299.724c-2.443-3.578-7.331-4.494-10.913-2.055
		c-18.988,12.968-37.991,26.772-56.5,41.032c-2.664,2.058-7.479,3.64-9.113,1.336l-63.977-97.551
		c0.737-1.374,2.043-2.919,4.163-4.204c13.7-8.34,27.347-17.017,40.556-25.786c3.616-2.396,4.601-7.27,2.201-10.886
		c-2.393-3.608-7.27-4.597-10.882-2.197c-13.045,8.654-26.515,17.22-40.027,25.445c-4.574,2.772-8.104,6.628-10.233,10.963
		c-0.877,0-191.287,0-190.395,0c-2.128-4.334-5.655-8.187-10.218-10.951c-13.528-8.236-26.998-16.802-40.043-25.457
		c-3.608-2.412-8.482-1.419-10.882,2.197s-1.415,8.489,2.201,10.886c13.21,8.769,26.856,17.447,40.572,25.798
		c1.935,1.172,3.933,3.847,3.934,3.848c-5.695,8.758-21.657,33.305-61.846,95.109c-0.785,0.319-2.535,8.004-11.039,1.443
		c-18.501-14.252-37.504-28.056-56.492-41.024c-3.577-2.446-8.463-1.53-10.913,2.055c-2.446,3.581-1.526,8.466,2.055,10.913
		c18.739,12.803,37.5,26.427,55.756,40.487c10.464,8.093,24.776,7.836,31.676-2.216l3.323-4.84
		c7.896,7.189,9.572,10.752,12.654,17.622c-1.907,1.484-3.706,3.144-5.213,5.178c-8.839,11.947-6.569,29.045,5.694,38.122
		l0.982,0.725c5.134,3.797,11.11,5.747,18.687,5.041c0.596,7.785,4.315,15.29,11.068,20.289h0.004
		c5.734,4.244,12.784,6.332,21.16,4.928c0.928,7.274,4.651,14.18,10.995,18.876c6.08,4.502,13.64,6.573,22.295,4.758
		c1.146,6.044,4.404,11.704,9.726,15.644c4.521,3.347,9.801,4.962,15.039,4.962c6.755,0,13.328-2.837,18.219-7.955
		c13.495,7.433,29.507,2.93,37.594-8.859c2.63-3.831,4.264-8.14,4.835-12.623l3.624,2.584c13.102,8.992,31.051,5.64,40.035-7.446
		c2.638-3.838,4.272-8.16,4.839-12.654c12.799,7.594,29.681,4.195,38.39-8.489c2.653-3.861,4.291-8.209,4.85-12.73l0.268,0.184
		c13.102,8.992,31.055,5.644,40.039-7.443c8.942-13.029,5.675-30.886-7.266-39.912l-1.344-1.029l16.012-9.692
		c8.13,4.834,18.43,2.858,26.031-3.018c18.263-14.068,37.025-27.692,55.764-40.495C507.449,308.19,508.369,303.305,505.922,299.724z
		 M139.857,388.151c-0.806,1.114-3.104,4.288-3.223,4.457c-3.99,3.372-9.909,3.722-14.293,0.476
		c-0.004-0.004-0.008-0.004-0.012-0.008l-0.97-0.717c-5.115-3.785-6.196-11.028-2.408-16.143c3.765-5.086,10.998-6.219,16.151-2.404
		l0.97,0.717C140.397,377.73,141.799,383.385,139.857,388.151z M169.101,415.887c-3.994,5.388-11.58,6.531-16.994,2.535
		c-5.2-3.849-6.391-11.068-2.887-16.407c1.252-1.374,7.047-9.568,9.126-12.443c4.045-5.458,11.662-6.485,16.994-2.535
		c5.385,3.986,6.52,11.603,2.543,16.986L169.101,415.887z M201.256,439.691c-4.073,5.496-11.707,6.447-16.99,2.535h-0.004
		c-5.411-4.01-6.524-11.605-2.538-16.994l16.584-22.401c3.973-5.368,11.588-6.54,16.994-2.538
		c5.383,3.988,6.522,11.614,2.538,16.994L201.256,439.691z M232.027,457.536l-2.281,3.079c-3.163,4.272-9.206,5.176-13.459,2.013
		h-0.004c-4.264-3.156-5.165-9.195-2.009-13.463l2.281-3.079c3.16-4.271,9.199-5.163,13.463-2.013
		C234.291,447.237,235.193,453.259,232.027,457.536z M401.723,395.894c-4.08,5.947-12.236,7.473-18.24,3.355l-81.546-55.806
		c-3.57-2.462-8.463-1.545-10.917,2.028c-0.936,1.361-1.384,2.914-1.38,4.448c0.004,2.496,1.192,4.95,3.409,6.469l60.139,41.297
		c5.875,4.024,7.536,12.146,3.378,18.194c-4.067,5.938-12.203,7.497-18.194,3.386l-60.143-41.293
		c-3.056-2.113-7.17-1.771-9.858,0.782l-0.629,0.598c-1.729,1.649-2.619,3.995-2.408,6.377c0.211,2.385,1.492,4.54,3.485,5.863
		l41.135,27.24c5.962,4.091,7.479,12.229,3.386,18.194c-4.091,5.947-12.255,7.462-18.087,3.462l-38.716-27.604
		c-3.497-2.485-8.351-1.714-10.886,1.745c-2.542,3.459-1.837,8.317,1.584,10.909l14.229,10.775
		c5.947,4.087,7.466,12.247,3.378,18.198c-3.774,5.505-11.017,7.159-16.34,4.498c3.189-10.698-0.832-21.409-9.139-27.562
		c-2.863-2.116-6.032-3.519-9.299-4.276l0.399-0.54c9.134-12.339,6.526-29.82-5.817-38.961c-9.31-6.89-21.528-7.087-30.898-1.482
		c-1.864-4.527-4.848-8.655-9.061-11.774c-5.982-4.429-13.332-6.262-20.69-5.165c-3.586,0.536-6.954,1.76-9.99,3.543
		c-1.887-4.263-4.746-8.042-8.599-10.894l-0.97-0.717c-5.451-4.037-11.919-5.612-18.206-5.143
		c-4.384-9.689-7.238-15.319-18.224-24.899c79.026-115.64,41.231-60.334,51.883-75.921c0.795-1.159,1.405-2.405,1.902-3.693h35.552
		c-16.792,9.646-27.224,27.556-27.224,46.956v9.785c0,12.664,12.271,21.638,24.341,17.861c8.811-2.749,16.112-9.187,21.112-18.62
		c10.286-19.424,37.238-19.484,48.486-4.011c5.84,8.033,17.197,17.608,38.122,17.608c8.229,0,16.181,2.439,23.003,7.055
		l61.719,41.791c0.038,0.027,0.077,0.054,0.115,0.081l11.288,7.642c0.011,0.007,0.02,0.015,0.031,0.023
		C404.288,381.78,405.806,389.943,401.723,395.894z M391.657,354.203l-57.669-39.05c-9.429-6.38-20.43-9.755-31.806-9.755
		c-11.492,0-20.042-3.75-25.418-11.139c-17.918-24.657-59.22-24.025-75.07,5.893c-3.06,5.778-7.067,9.471-11.906,10.982
		c-2.006,0.614-3.961-0.834-3.961-2.868v-9.785c0-13.938,7.561-26.814,19.732-33.609l23.911-13.348h120.739
		c0.498,1.287,1.109,2.533,1.905,3.693l59.616,86.835L391.657,354.203z M255.962,199.838c46.373,0,84.104-37.696,84.104-84.027
		s-37.731-84.023-84.104-84.023c-46.331,0-84.027,37.692-84.027,84.023S209.631,199.838,255.962,199.838z M255.962,47.493
		c37.715,0,68.398,30.648,68.398,68.318c0,37.673-30.683,68.321-68.398,68.321c-37.673,0-68.321-30.648-68.321-68.321
		C187.64,78.141,218.289,47.493,255.962,47.493z M224.961,126.056c-3.068-3.068-3.068-8.041,0-11.104
		c3.068-3.068,8.037-3.068,11.104,0l8.309,8.309l31.561-31.557c3.068-3.068,8.037-3.068,11.104,0c3.068,3.068,3.068,8.037,0,11.104
		l-37.113,37.113c-3.072,3.072-8.043,3.061-11.104,0L224.961,126.056z"></path>
</svg>
